# Blender v2.62 (sub 0) OBJ File: ''
# www.blender.org
mtllib object.mtl
o Circle
v 0.000000 0.000000 -1.000000
v 0.500000 0.000000 -0.866025
v 0.866025 0.000000 -0.500000
v 1.000000 0.000000 0.000000
v 0.866025 0.000000 0.500000
v 0.500000 0.000000 0.866025
v 0.000000 0.000000 1.000000
v -0.500000 0.000000 0.866026
v -0.866025 0.000000 0.500000
v -1.000000 0.000000 0.000000
v -0.866026 0.000000 -0.499999
v -0.500001 0.000000 -0.866025
vt 0.633974 1.000000
vt 0.366026 1.000000
vt 0.133974 0.866025
vt 0.866025 0.866025
vt 0.000000 0.633974
vt 1.000000 0.366026
vt 0.000000 0.366025
vt 0.133975 0.133975
vt 0.866025 0.133975
vt 0.366026 0.000000
vt 0.633975 0.000000
vt 1.000000 0.633974
vn -0.000000 1.000000 0.000000
usemtl 
s off
f 2/1/1 1/2/1 12/3/1
f 3/4/1 2/1/1 12/3/1
f 3/4/1 12/3/1 11/5/1
f 5/6/1 10/7/1 9/8/1
f 6/9/1 5/6/1 9/8/1
f 6/9/1 9/8/1 8/10/1
f 7/11/1 6/9/1 8/10/1
f 11/5/1 10/7/1 5/6/1
f 3/4/1 11/5/1 5/6/1
f 3/4/1 5/6/1 4/12/1
