# Blender v2.62 (sub 0) OBJ File: 'fdsdf.blend'
# www.blender.org
mtllib object.mtl
o Cylinder
v -0.195089 0.980786 -0.999999
v 0.195090 0.980786 -0.999999
v 0.555570 0.831470 -0.999999
v 0.831470 0.555571 -0.999999
v 0.980785 0.195091 -0.999999
v 0.980785 -0.195090 -0.999999
v 0.831470 -0.555570 -0.999999
v 0.555570 -0.831469 -0.999999
v 0.195090 -0.980785 -0.999999
v -0.195091 -0.980785 -0.999999
v -0.555571 -0.831469 -0.999999
v -0.831470 -0.555569 -0.999999
v -0.980785 -0.195089 -0.999999
v -0.980785 0.195092 -0.999999
v -0.831469 0.555572 -0.999999
v -0.555569 0.831471 -0.999999
v -0.195097 0.980785 1.000001
v 0.195092 0.980786 1.000001
v 0.555572 0.831469 1.000001
v 0.831471 0.555569 1.000001
v 0.980786 0.195089 1.000001
v 0.980785 -0.195091 1.000001
v 0.831469 -0.555570 1.000001
v 0.555570 -0.831469 1.000001
v 0.195091 -0.980784 1.000001
v -0.195089 -0.980785 1.000001
v -0.555568 -0.831470 1.000001
v -0.831468 -0.555572 1.000001
v -0.980785 -0.195093 1.000001
v -0.980786 0.195087 1.000001
v -0.831473 0.555567 1.000001
v -0.555575 0.831467 1.000001
v -0.195097 0.980785 3.000001
v -0.555575 0.831467 3.000001
v -0.831473 0.555567 3.000001
v -0.980786 0.195087 3.000001
v -0.980785 -0.195093 3.000001
v -0.831468 -0.555572 3.000001
v -0.555568 -0.831470 3.000001
v -0.195089 -0.980785 3.000001
v 0.195091 -0.980784 3.000001
v 0.555570 -0.831469 3.000001
v 0.831469 -0.555570 3.000001
v 0.980785 -0.195091 3.000001
v 0.980786 0.195089 3.000001
v 0.831471 0.555569 3.000001
v 0.555572 0.831469 3.000001
v 0.195092 0.980786 3.000001
v -0.117058 0.588471 4.000001
v 0.117055 0.588471 4.000001
v 0.333343 0.498881 4.000001
v 0.498882 0.333341 4.000001
v 0.588471 0.117053 4.000001
v 0.588471 -0.117055 4.000001
v 0.498881 -0.333342 4.000001
v 0.333342 -0.498882 4.000001
v 0.117054 -0.588471 4.000001
v -0.117054 -0.588471 4.000001
v -0.333341 -0.498882 4.000001
v -0.498881 -0.333343 4.000001
v -0.588471 -0.117056 4.000001
v -0.588472 0.117052 4.000001
v -0.498884 0.333340 4.000001
v -0.333345 0.498880 4.000001
v -0.000000 0.000000 5.000001
v 0.000000 0.000001 -2.999999
v -0.156071 0.784629 -3.000000
v -0.444455 0.665177 -3.000000
v -0.665175 0.444458 -2.999999
v -0.784628 0.156074 -2.999999
v -0.784628 -0.156071 -2.999999
v -0.665176 -0.444455 -2.999999
v -0.444457 -0.665175 -2.999999
v -0.156073 -0.784628 -2.999999
v 0.156072 -0.784628 -2.999999
v 0.444456 -0.665175 -2.999999
v 0.665176 -0.444456 -2.999999
v 0.784628 -0.156072 -2.999999
v 0.784628 0.156073 -2.999999
v 0.665176 0.444457 -2.999999
v 0.444456 0.665176 -3.000000
v 0.156072 0.784629 -3.000000
v -0.306140 1.539081 -2.999999
v 0.306142 1.539080 -2.999999
v 1.539080 0.306142 -2.999999
v 1.539080 -0.306142 -2.999999
v 0.306142 -1.539080 -2.999999
v -0.306143 -1.539080 -2.999999
v -1.539080 -0.306140 -2.999999
v -1.539080 0.306144 -2.999999
v -1.338450 0.266236 -3.999999
v -1.338451 -0.266233 -3.999999
v -0.266235 -1.338450 -3.999999
v 0.266234 -1.338451 -3.999999
v 1.338451 -0.266234 -3.999999
v 1.338451 0.266235 -3.999999
v 0.266234 1.338451 -3.999999
v -0.266232 1.338452 -3.999999
v 0.135727 0.682347 -3.999999
v 0.682347 0.135728 -3.999999
v 0.682347 -0.135727 -3.999999
v 0.135727 -0.682346 -3.999999
v -0.135727 -0.682346 -3.999999
v -0.682347 -0.135726 -3.999999
v -0.682347 0.135728 -3.999999
v -0.135726 0.682348 -3.999999
v -0.555568 -0.831470 3.000001
v -0.555568 -0.831470 3.000001
v -0.665176 -0.444455 -2.999999
v -0.784628 -0.156071 -2.999999
v -0.784628 -0.156071 -2.999999
v -0.682347 -0.135726 -3.999999
v -0.682347 -0.135726 -3.999999
v -1.338451 -0.266233 -3.999999
v -1.338451 -0.266233 -3.999999
v -1.539080 -0.306140 -2.999999
v -0.980785 -0.195089 -0.999999
v -0.784628 -0.156071 -2.999999
v -1.338450 0.266236 -3.999999
v -1.338450 0.266236 -3.999999
v -1.539080 0.306144 -2.999999
v -0.980785 0.195092 -0.999999
v -0.784628 0.156074 -2.999999
v -0.784628 0.156074 -2.999999
v -0.682347 0.135728 -3.999999
v -0.682347 0.135728 -3.999999
v -0.444457 -0.665175 -2.999999
v -0.156073 -0.784628 -2.999999
v -0.156073 -0.784628 -2.999999
v -0.135727 -0.682346 -3.999999
v -0.135727 -0.682346 -3.999999
v -0.266235 -1.338450 -3.999999
v -0.266235 -1.338450 -3.999999
v -0.306143 -1.539080 -2.999999
v -0.195091 -0.980785 -0.999999
v -0.156073 -0.784628 -2.999999
v 0.266234 -1.338451 -3.999999
v 0.266234 -1.338451 -3.999999
v 0.306142 -1.539080 -2.999999
v 0.195090 -0.980785 -0.999999
v 0.156072 -0.784628 -2.999999
v 0.156072 -0.784628 -2.999999
v 0.135727 -0.682346 -3.999999
v 0.135727 -0.682346 -3.999999
v 0.980785 0.195091 -0.999999
v 1.539080 0.306142 -2.999999
v 1.338451 0.266235 -3.999999
v 1.338451 0.266235 -3.999999
v 1.338451 -0.266234 -3.999999
v 1.338451 -0.266234 -3.999999
v 1.539080 -0.306142 -2.999999
v 0.980785 -0.195090 -0.999999
v 0.784628 -0.156072 -2.999999
v 0.784628 -0.156072 -2.999999
v 0.784628 -0.156072 -2.999999
v 0.665176 -0.444456 -2.999999
v 0.444456 -0.665175 -2.999999
v 0.156072 -0.784628 -2.999999
v 0.784628 0.156073 -2.999999
v 0.784628 0.156073 -2.999999
v 0.682347 0.135728 -3.999999
v 0.682347 -0.135727 -3.999999
v 0.682347 -0.135727 -3.999999
v 0.682347 0.135728 -3.999999
v 0.784628 0.156073 -2.999999
v 0.665176 0.444457 -2.999999
v 0.444456 0.665176 -3.000000
v 0.156072 0.784629 -3.000000
v 0.156072 0.784629 -3.000000
v 0.135727 0.682347 -3.999999
v 0.135727 0.682347 -3.999999
v 0.266234 1.338451 -3.999999
v 0.266234 1.338451 -3.999999
v 0.306142 1.539080 -2.999999
v 0.195090 0.980786 -0.999999
v 0.156072 0.784629 -3.000000
v -0.266232 1.338452 -3.999999
v -0.266232 1.338452 -3.999999
v -0.306140 1.539081 -2.999999
v -0.195089 0.980786 -0.999999
v -0.156071 0.784629 -3.000000
v -0.156071 0.784629 -3.000000
v -0.135726 0.682348 -3.999999
v -0.135726 0.682348 -3.999999
v -0.665175 0.444458 -2.999999
v -0.444455 0.665177 -3.000000
v -0.156071 0.784629 -3.000000
v -0.784628 0.156074 -2.999999
vt 0.381730 0.343169
vt 0.191118 0.343384
vt 0.191075 0.306198
vt 0.381678 0.305937
vt 0.191051 0.268923
vt 0.380945 0.268850
vt 0.191051 0.231655
vt 0.380913 0.231879
vt 0.191076 0.194477
vt 0.381614 0.194776
vt 0.191124 0.157290
vt 0.381669 0.157565
vt 0.191191 0.120009
vt 0.381057 0.120511
vt 0.191287 0.082723
vt 0.381151 0.083570
vt 0.191410 0.045411
vt 0.382019 0.046558
vt 0.191546 0.008161
vt 0.382252 0.009353
vt 0.382710 0.602731
vt 0.191990 0.604195
vt 0.191789 0.566954
vt 0.381790 0.565599
vt 0.191622 0.529637
vt 0.381597 0.528630
vt 0.191483 0.492333
vt 0.382120 0.491582
vt 0.191355 0.455130
vt 0.381968 0.454360
vt 0.191246 0.417939
vt 0.381178 0.417237
vt 0.191170 0.380662
vt 0.381119 0.380240
vt 0.000099 0.380952
vt 0.000048 0.343630
vt 0.000167 0.418271
vt 0.000252 0.455584
vt 0.000350 0.492899
vt 0.000459 0.530218
vt 0.000583 0.567538
vt 0.000710 0.604851
vt 0.000226 0.045105
vt 0.000298 0.007794
vt 0.000157 0.082420
vt 0.000096 0.119736
vt 0.000056 0.157051
vt 0.000023 0.194359
vt 0.000004 0.231671
vt 0.000000 0.268991
vt 0.000015 0.306311
vt 0.764939 0.342485
vt 0.718528 0.323142
vt 0.769144 0.244129
vt 0.783552 0.249197
vt 0.816046 0.343025
vt 0.798646 0.248530
vt 0.864208 0.324021
vt 0.812283 0.242270
vt 0.901987 0.287798
vt 0.822484 0.231353
vt 0.923335 0.239453
vt 0.827734 0.217413
vt 0.924574 0.186124
vt 0.827245 0.202567
vt 0.905024 0.135935
vt 0.821097 0.189100
vt 0.867181 0.096784
vt 0.810267 0.179120
vt 0.816419 0.075155
vt 0.796515 0.174207
vt 0.760280 0.075155
vt 0.782134 0.175118
vt 0.709646 0.099015
vt 0.768706 0.180387
vt 0.673233 0.139754
vt 0.758294 0.190682
vt 0.655739 0.190354
vt 0.752644 0.204363
vt 0.658870 0.242798
vt 0.752684 0.219300
vt 0.681205 0.289237
vt 0.758447 0.233236
vt 0.790157 0.211046
vt 0.573354 0.353375
vt 0.572318 0.383292
vt 0.572403 0.413227
vt 0.573595 0.443147
vt 0.573613 0.501429
vt 0.572633 0.531323
vt 0.572759 0.561226
vt 0.574009 0.590964
vt 0.573161 0.058044
vt 0.571925 0.087890
vt 0.571794 0.117753
vt 0.572787 0.147458
vt 0.573100 0.205594
vt 0.571969 0.235490
vt 0.571944 0.265399
vt 0.573043 0.295144
vt 0.657626 0.495493
vt 0.701420 0.561035
vt 0.673005 0.572805
vt 0.642248 0.572805
vt 0.613832 0.561035
vt 0.592084 0.539287
vt 0.580314 0.510871
vt 0.580314 0.480114
vt 0.592084 0.451699
vt 0.613832 0.429950
vt 0.642248 0.418180
vt 0.673005 0.418180
vt 0.701420 0.429950
vt 0.723169 0.451699
vt 0.734939 0.480114
vt 0.734939 0.510871
vt 0.723169 0.539287
vt 0.394062 0.755661
vt 0.584535 0.680256
vt 0.592075 0.755661
vt 0.579805 0.295061
vt 0.579887 0.353487
vt 0.592075 0.604851
vt 0.790088 0.604851
vt 0.782548 0.680256
vt 0.790088 0.755661
vt 0.394062 0.604851
vt 0.579716 0.147265
vt 0.579630 0.205658
vt 0.197031 0.660932
vt 0.394061 0.604851
vt 0.394062 0.680632
vt 0.000000 0.700336
vt 0.197031 0.680633
vt 0.197031 0.756414
vt 0.580013 0.442956
vt 0.580252 0.501366
vt 0.197031 0.700336
vt 0.394062 0.756414
vt 0.000000 0.660932
vt 0.197030 0.604851
vt 0.580314 0.000000
vt 0.579949 0.058383
vt 0.110378 0.957154
vt 0.110378 0.926544
vt 0.208952 0.928539
vt 0.208952 0.955159
vt 0.147214 0.822760
vt 0.147214 0.792150
vt 0.245788 0.794145
vt 0.245788 0.820765
vt 0.870837 0.467114
vt 0.944481 0.482179
vt 0.934881 0.579958
vt 0.870837 0.566857
vt 0.048640 0.822760
vt 0.048640 0.792150
vt 0.147214 0.794145
vt 0.147214 0.820765
vt 0.859230 0.761319
vt 0.932873 0.776383
vt 0.923273 0.874162
vt 0.859230 0.861061
vt 0.863685 0.434485
vt 0.863685 0.403875
vt 0.962259 0.405870
vt 0.962259 0.432490
vt 0.603996 0.924672
vt 0.619060 0.851029
vt 0.716839 0.860629
vt 0.703739 0.924672
vt 0.480746 0.949278
vt 0.405983 0.957075
vt 0.415729 0.857809
vt 0.480746 0.851029
vt 0.110703 0.926544
vt 0.102906 0.851781
vt 0.202171 0.861527
vt 0.208952 0.926544
vt 0.616419 0.984957
vt 0.616419 0.924672
vt 0.716839 0.928602
vt 0.716839 0.981028
vt 0.307734 0.926544
vt 0.299937 0.851781
vt 0.399203 0.861527
vt 0.405983 0.926545
vt 0.859230 0.701882
vt 0.958237 0.705756
vt 0.958237 0.757445
vt 0.802009 0.947903
vt 0.802009 0.888467
vt 0.901017 0.892341
vt 0.901017 0.944029
vt 0.791602 0.949278
vt 0.716839 0.957074
vt 0.726585 0.857809
vt 0.791602 0.851029
vt 0.491153 0.924672
vt 0.506217 0.851029
vt 0.603996 0.860629
vt 0.590895 0.924672
vt 0.503575 0.984957
vt 0.503575 0.924672
vt 0.603996 0.928602
vt 0.603996 0.981028
vt 0.273601 0.917107
vt 0.273601 0.943854
vt 0.208952 0.956713
vt 0.208952 0.904247
vt 0.917330 0.653868
vt 0.890583 0.653868
vt 0.877724 0.589219
vt 0.930190 0.589219
vt 0.208952 0.891388
vt 0.208952 0.864640
vt 0.273601 0.851781
vt 0.273601 0.904247
vt 0.051528 0.916430
vt 0.024781 0.916430
vt 0.011921 0.851781
vt 0.064387 0.851781
vn -0.194220 0.979827 0.046480
vn -0.195074 0.980773 0.000000
vn 0.195074 0.980773 0.000000
vn 0.194220 0.979827 0.046480
vn 0.555559 0.831446 0.000000
vn 0.554888 0.830439 -0.049501
vn 0.831446 0.555559 0.000000
vn 0.830439 0.554888 -0.049501
vn 0.980773 0.195074 0.000000
vn 0.979827 0.194220 0.046480
vn 0.980773 -0.195074 0.000000
vn 0.979827 -0.194220 0.046480
vn 0.831446 -0.555559 0.000000
vn 0.830439 -0.554888 -0.049501
vn 0.555559 -0.831446 0.000000
vn 0.554888 -0.830439 -0.049501
vn 0.195074 -0.980773 0.000000
vn 0.194220 -0.979827 0.046480
vn -0.195074 -0.980773 0.000000
vn -0.194220 -0.979827 0.046480
vn -0.555559 -0.831446 0.000000
vn -0.554888 -0.830439 -0.049501
vn -0.831446 -0.555559 0.000000
vn -0.830439 -0.554888 -0.049501
vn -0.980773 -0.195074 0.000000
vn -0.979827 -0.194220 0.046480
vn -0.980773 0.195074 0.000000
vn -0.979827 0.194220 0.046480
vn -0.831446 0.555559 0.000000
vn -0.830439 0.554888 -0.049501
vn -0.555559 0.831446 0.000000
vn -0.554888 0.830439 -0.049501
vn -0.545976 0.817103 0.184881
vn -0.191717 0.963866 0.184881
vn -0.817133 0.545976 0.184881
vn -0.963866 0.191717 0.184881
vn -0.963866 -0.191717 0.184881
vn -0.817133 -0.545976 0.184881
vn -0.545976 -0.817133 0.184881
vn -0.191717 -0.963866 0.184881
vn 0.191717 -0.963866 0.184881
vn 0.545976 -0.817133 0.184881
vn 0.817133 -0.545976 0.184881
vn 0.963866 -0.191717 0.184881
vn 0.963866 0.191717 0.184881
vn 0.817133 0.545976 0.184881
vn 0.545976 0.817133 0.184881
vn 0.191717 0.963866 0.184881
vn -0.175146 0.880520 0.440443
vn 0.175146 0.880520 0.440443
vn 0.498764 0.746452 0.440443
vn 0.746452 0.498764 0.440443
vn 0.880520 0.175115 0.440443
vn 0.880520 -0.175146 0.440443
vn 0.746452 -0.498764 0.440443
vn 0.498764 -0.746452 0.440443
vn 0.175146 -0.880520 0.440443
vn -0.175146 -0.880520 0.440443
vn -0.498764 -0.746452 0.440443
vn -0.746452 -0.498764 0.440443
vn -0.880520 -0.175146 0.440443
vn -0.880520 0.175115 0.440443
vn -0.746452 0.498764 0.440443
vn -0.498764 0.746452 0.440443
vn 0.000000 0.000000 1.000000
vn -0.380840 0.919462 -0.097598
vn -0.552782 0.827326 -0.099490
vn -0.827326 0.552812 -0.099490
vn -0.919462 0.380840 -0.097598
vn -0.919462 -0.380840 -0.097598
vn -0.827326 -0.552812 -0.099490
vn -0.552812 -0.827326 -0.099490
vn -0.380840 -0.919462 -0.097598
vn 0.380840 -0.919462 -0.097598
vn 0.552812 -0.827326 -0.099490
vn 0.827326 -0.552812 -0.099490
vn 0.919462 -0.380840 -0.097598
vn 0.919462 0.380840 -0.097598
vn 0.827326 0.552812 -0.099490
vn 0.552812 0.827326 -0.099490
vn 0.380840 0.919462 -0.097598
vn 0.000000 0.000000 -1.000000
vn 0.000000 0.999329 0.035951
vn 0.999329 0.000000 0.035951
vn -0.999329 0.000000 0.035951
vn 0.000000 -0.999329 0.035951
vn 0.000000 -0.994781 0.101749
vn 0.994781 0.000000 0.101749
vn 0.000000 0.994781 0.101749
vn -0.994781 0.000000 0.101749
vn -0.980438 0.000000 -0.196692
vn 0.000000 -0.980438 -0.196692
vn 0.980438 0.000000 -0.196692
vn 0.000000 0.980438 -0.196692
vn 0.000000 0.000000 -0.999969
usemtl _rockTex
s 1
f 1/1/1 17/2/2 18/3/3
f 1/1/1 18/3/3 2/4/4
f 2/4/4 18/3/3 19/5/5
f 2/4/4 19/5/5 3/6/6
f 3/6/6 19/5/5 20/7/7
f 3/6/6 20/7/7 4/8/8
f 4/8/8 20/7/7 21/9/9
f 4/8/8 21/9/9 5/10/10
f 5/10/10 21/9/9 22/11/11
f 5/10/10 22/11/11 6/12/12
f 6/12/12 22/11/11 23/13/13
f 6/12/12 23/13/13 7/14/14
f 7/14/14 23/13/13 24/15/15
f 7/14/14 24/15/15 8/16/16
f 8/16/16 24/15/15 25/17/17
f 8/16/16 25/17/17 9/18/18
f 9/18/18 25/17/17 26/19/19
f 9/18/18 26/19/19 10/20/20
f 10/21/20 26/22/19 27/23/21
f 10/21/20 27/23/21 11/24/22
f 11/24/22 27/23/21 28/25/23
f 11/24/22 28/25/23 12/26/24
f 12/26/24 28/25/23 29/27/25
f 12/26/24 29/27/25 13/28/26
f 13/28/26 29/27/25 30/29/27
f 13/28/26 30/29/27 14/30/28
f 14/30/28 30/29/27 31/31/29
f 14/30/28 31/31/29 15/32/30
f 15/32/30 31/31/29 32/33/31
f 15/32/30 32/33/31 16/34/32
f 17/2/2 1/1/1 16/34/32
f 17/2/2 16/34/32 32/33/31
f 17/2/2 32/33/31 34/35/33
f 17/2/2 34/35/33 33/36/34
f 32/33/31 31/31/29 35/37/35
f 32/33/31 35/37/35 34/35/33
f 31/31/29 30/29/27 36/38/36
f 31/31/29 36/38/36 35/37/35
f 30/29/27 29/27/25 37/39/37
f 30/29/27 37/39/37 36/38/36
f 29/27/25 28/25/23 38/40/38
f 29/27/25 38/40/38 37/39/37
f 28/25/23 27/23/21 39/41/39
f 28/25/23 39/41/39 38/40/38
f 27/23/21 26/22/19 40/42/40
f 27/23/21 40/42/40 39/41/39
f 26/19/19 25/17/17 41/43/41
f 26/19/19 41/43/41 40/44/40
f 25/17/17 24/15/15 42/45/42
f 25/17/17 42/45/42 41/43/41
f 24/15/15 23/13/13 43/46/43
f 24/15/15 43/46/43 42/45/42
f 23/13/13 22/11/11 44/47/44
f 23/13/13 44/47/44 43/46/43
f 22/11/11 21/9/9 45/48/45
f 22/11/11 45/48/45 44/47/44
f 21/9/9 20/7/7 46/49/46
f 21/9/9 46/49/46 45/48/45
f 20/7/7 19/5/5 47/50/47
f 20/7/7 47/50/47 46/49/46
f 19/5/5 18/3/3 48/51/48
f 19/5/5 48/51/48 47/50/47
f 18/3/3 17/2/2 33/36/34
f 18/3/3 33/36/34 48/51/48
f 48/52/48 33/53/34 49/54/49
f 48/52/48 49/54/49 50/55/50
f 47/56/47 48/52/48 50/55/50
f 47/56/47 50/55/50 51/57/51
f 46/58/46 47/56/47 51/57/51
f 46/58/46 51/57/51 52/59/52
f 45/60/45 46/58/46 52/59/52
f 45/60/45 52/59/52 53/61/53
f 44/62/44 45/60/45 53/61/53
f 44/62/44 53/61/53 54/63/54
f 43/64/43 44/62/44 54/63/54
f 43/64/43 54/63/54 55/65/55
f 42/66/42 43/64/43 55/65/55
f 42/66/42 55/65/55 56/67/56
f 41/68/41 42/66/42 56/67/56
f 41/68/41 56/67/56 57/69/57
f 40/70/40 41/68/41 57/69/57
f 40/70/40 57/69/57 58/71/58
f 39/72/39 40/70/40 58/71/58
f 39/72/39 58/71/58 59/73/59
f 38/74/38 39/72/39 59/73/59
f 38/74/38 59/73/59 60/75/60
f 37/76/37 38/74/38 60/75/60
f 37/76/37 60/75/60 61/77/61
f 36/78/36 37/76/37 61/77/61
f 36/78/36 61/77/61 62/79/62
f 35/80/35 36/78/36 62/79/62
f 35/80/35 62/79/62 63/81/63
f 34/82/33 35/80/35 63/81/63
f 34/82/33 63/81/63 64/83/64
f 33/53/34 34/82/33 64/83/64
f 33/53/34 64/83/64 49/54/49
f 65/84/65 50/55/50 49/54/49
f 65/84/65 51/57/51 50/55/50
f 65/84/65 52/59/52 51/57/51
f 65/84/65 53/61/53 52/59/52
f 65/84/65 54/63/54 53/61/53
f 65/84/65 55/65/55 54/63/54
f 65/84/65 56/67/56 55/65/55
f 65/84/65 57/69/57 56/67/56
f 65/84/65 58/71/58 57/69/57
f 65/84/65 59/73/59 58/71/58
f 65/84/65 60/75/60 59/73/59
f 65/84/65 61/77/61 60/75/60
f 65/84/65 62/79/62 61/77/61
f 65/84/65 63/81/63 62/79/62
f 65/84/65 64/83/64 63/81/63
f 65/84/65 49/54/49 64/83/64
f 16/34/32 1/1/1 67/85/66
f 16/34/32 67/85/66 68/86/67
f 15/32/30 16/34/32 68/86/67
f 15/32/30 68/86/67 69/87/68
f 14/30/28 15/32/30 69/87/68
f 14/30/28 69/87/68 70/88/69
f 12/26/24 13/28/26 71/89/70
f 12/26/24 71/89/70 72/90/71
f 11/24/22 12/26/24 72/90/71
f 11/24/22 72/90/71 73/91/72
f 10/21/20 11/24/22 73/91/72
f 10/21/20 73/91/72 74/92/73
f 8/16/16 9/18/18 75/93/74
f 8/16/16 75/93/74 76/94/75
f 7/14/14 8/16/16 76/94/75
f 7/14/14 76/94/75 77/95/76
f 6/12/12 7/14/14 77/95/76
f 6/12/12 77/95/76 78/96/77
f 4/8/8 5/10/10 79/97/78
f 4/8/8 79/97/78 80/98/79
f 3/6/6 4/8/8 80/98/79
f 3/6/6 80/98/79 81/99/80
f 2/4/4 3/6/6 81/99/80
f 2/4/4 81/99/80 82/100/81
f 66/101/82 187/102/82 169/103/82
f 66/101/82 169/103/82 167/104/82
f 66/101/82 167/104/82 166/105/82
f 66/101/82 166/105/82 165/106/82
f 66/101/82 165/106/82 155/107/82
f 66/101/82 155/107/82 156/108/82
f 66/101/82 156/108/82 157/109/82
f 66/101/82 157/109/82 158/110/82
f 66/101/82 158/110/82 129/111/82
f 66/101/82 129/111/82 127/112/82
f 66/101/82 127/112/82 109/113/82
f 66/101/82 109/113/82 111/114/82
f 66/101/82 111/114/82 188/115/82
f 66/101/82 188/115/82 185/116/82
f 66/101/82 185/116/82 186/117/82
f 66/101/82 186/117/82 187/102/82
f 180/118/25 83/119/25 181/120/25
f 1/1/1 2/4/4 84/121/83
f 1/1/1 84/121/83 179/122/83
f 175/123/11 176/124/11 174/125/11
f 145/120/2 146/125/2 159/126/2
f 152/127/19 153/123/19 86/119/19
f 5/10/10 6/12/12 151/128/84
f 5/10/10 151/128/84 85/129/84
f 117/130/17 89/131/17 118/132/17
f 122/133/3 123/134/3 90/135/3
f 13/28/26 14/30/28 121/136/85
f 13/28/26 121/136/85 116/137/85
f 135/138/27 136/132/27 88/139/27
f 140/140/9 87/141/9 141/134/9
f 9/18/18 10/20/20 134/142/86
f 9/18/18 134/142/86 139/143/86
f 168/144/87 182/145/87 106/146/87
f 168/144/87 106/146/87 171/147/87
f 124/148/88 110/149/88 113/150/88
f 124/148/88 113/150/88 105/151/88
f 90/152/3 123/153/3 125/154/3
f 90/152/3 125/154/3 91/155/3
f 128/156/89 142/157/89 102/158/89
f 128/156/89 102/158/89 131/159/89
f 88/160/27 136/161/27 103/162/27
f 88/160/27 103/162/27 93/163/27
f 154/164/90 160/165/90 100/166/90
f 154/164/90 100/166/90 101/167/90
f 86/168/19 153/169/19 162/170/19
f 86/168/19 162/170/19 95/171/19
f 181/172/25 83/173/25 98/174/25
f 181/172/25 98/174/25 183/175/25
f 118/176/17 89/177/17 92/178/17
f 118/176/17 92/178/17 104/179/17
f 116/180/85 121/181/85 120/182/91
f 116/180/85 120/182/91 115/183/91
f 141/184/9 87/185/9 94/186/9
f 141/184/9 94/186/9 143/187/9
f 139/160/86 134/188/86 133/189/92
f 139/160/86 133/189/92 138/190/92
f 85/191/84 151/192/84 150/193/93
f 85/191/84 150/193/93 96/194/93
f 159/195/2 146/196/2 148/197/2
f 159/195/2 148/197/2 161/198/2
f 174/199/11 176/200/11 99/201/11
f 174/199/11 99/201/11 97/202/11
f 179/203/83 84/204/83 173/205/94
f 179/203/83 173/205/94 178/206/94
f 170/207/82 184/208/95 177/209/82
f 170/207/82 177/209/82 172/210/82
f 163/211/82 164/212/95 147/213/82
f 163/211/82 147/213/82 149/214/82
f 130/215/82 144/216/82 137/217/82
f 130/215/82 137/217/82 132/218/82
f 126/219/82 112/220/82 114/221/82
f 126/219/82 114/221/82 119/222/82
