# Blender v2.62 (sub 0) OBJ File: 'quit.blend'
# www.blender.org
mtllib object.mtl
o Cylinder
v -0.000000 0.015158 -2.104281
v 0.985340 0.015158 -1.828169
v 1.657842 0.015158 -1.087496
v 1.803991 0.015158 -0.117421
v 1.377385 0.015158 0.774064
v 0.513469 0.015158 1.303919
v -0.513470 0.015158 1.303919
v -1.377386 0.015158 0.774063
v -1.803991 0.015158 -0.117422
v -1.657843 0.015158 -1.087497
v -0.985341 0.015158 -1.828169
v -0.000000 2.588246 -1.753136
v 0.645239 2.588246 -1.537979
v 1.085619 2.588246 -0.960820
v 1.181324 2.588246 -0.166222
v 0.901966 2.588246 0.620973
v 0.336241 2.588246 1.088843
v -0.336238 2.588246 1.088844
v -0.901965 2.588246 0.620976
v -1.181324 2.588246 -0.166217
v -1.085621 2.588246 -0.960816
v -0.645242 2.588246 -1.537977
v -0.000000 0.015158 -0.364954
v -0.906749 4.751760 -2.223222
v -1.525608 4.751760 -1.412146
v -1.660097 4.751760 -0.330489
v -1.267518 4.751760 0.775743
v -0.472511 4.751760 1.433231
v 0.472515 4.751760 1.433229
v 1.267521 4.751760 0.775738
v 1.660098 4.751760 -0.330495
v 1.525606 4.751760 -1.412150
v 0.906745 4.751760 -2.223225
v -0.000001 4.751760 -2.525581
v 0.911090 1.372651 -1.806539
v -0.000001 1.372651 -2.007585
v 1.532916 1.372651 -1.267230
v 1.668053 1.413237 -0.117423
v 1.273594 1.778531 1.039162
v 0.474779 1.778531 1.872545
v -0.474776 1.778531 1.872546
v -1.273592 1.778531 1.039165
v -1.668052 1.413237 -0.117419
v -1.532918 1.372651 -1.267228
v -0.911093 1.372651 -1.806537
v -1.439064 1.272308 2.168236
v -1.098755 1.507182 3.321102
v -0.409598 1.565902 3.906040
v 0.409603 1.565902 3.906039
v 1.098758 1.507182 3.321098
v 1.439067 1.272308 2.168232
v -1.803990 0.015158 2.931902
v -1.377385 0.015158 3.955588
v -0.513469 0.015158 4.564016
v 0.513470 0.015158 4.564016
v 1.377386 0.015158 3.955589
v 1.803992 0.015158 2.931903
v 1.022995 0.714198 -1.828169
v -0.000000 0.714198 -2.104281
v 1.721196 0.714198 -1.087497
v 1.872930 0.714198 -0.117422
v -1.872930 0.714198 -0.117421
v -1.721197 0.714198 -1.087495
v -1.022997 0.714198 -1.828168
v -1.872929 0.714198 2.931904
v 1.872931 0.714198 2.931902
v 1.430023 0.714198 3.955588
v 0.533093 0.714198 4.564016
v -0.533090 0.714198 4.564016
v -1.430020 0.714198 3.955589
v -0.711498 3.390471 -1.638169
v -0.000000 3.390471 -1.875421
v -1.197097 3.390471 -1.001742
v -1.302626 3.390471 -0.124636
v -0.994582 3.390471 0.743389
v -0.370764 3.390471 1.259300
v 0.370768 3.390471 1.259299
v 0.994584 3.390471 0.743386
v 1.302627 3.390471 -0.124641
v 1.197095 3.390471 -1.001746
v 0.711495 3.390471 -1.638171
v -0.000000 4.751760 -2.070792
v 0.690234 4.751760 -1.840632
v 1.161325 4.751760 -1.223224
v 1.263703 4.751760 -0.403838
v 0.964865 4.751760 0.438251
v 0.359689 4.751760 0.938749
v -0.359686 4.751760 0.938750
v -0.964863 4.751760 0.438255
v -1.263702 4.751760 -0.403833
v -1.161326 4.751760 -1.223220
v -0.690238 4.751760 -1.840629
v -0.000000 4.099361 -0.637653
v -0.547951 4.099361 -1.589198
v -0.921929 4.099361 -1.099063
v -1.003201 4.099361 -0.452033
v -0.765965 4.099361 0.216466
v -0.285540 4.099361 0.613788
v 0.285542 4.099361 0.613788
v 0.765967 4.099361 0.216463
v 1.003202 4.099361 -0.452037
v 0.921928 4.099361 -1.099065
v 0.547949 4.099361 -1.589200
v -0.000000 4.099361 -1.771915
v -1.477161 1.354516 1.031747
v -1.127842 1.639184 1.986069
v -0.420442 1.639184 2.594496
v 0.420446 1.639184 2.594494
v 1.127845 1.639184 1.986065
v 1.477162 1.354516 1.031744
v -1.803991 0.015158 0.877818
v 1.803991 0.015158 0.877819
v -1.377386 0.015158 2.102530
v -0.513470 0.015158 2.710959
v 0.513469 0.015158 2.710960
v 1.377385 0.015158 2.102531
v -1.872930 0.714198 0.877820
v 1.872931 0.714198 0.877818
v 0.770979 2.032499 -1.492250
v -0.000000 2.032499 -1.669905
v 1.297179 2.032499 -1.015688
v 1.411533 2.032499 -0.143141
v 1.077736 2.205273 0.818765
v 0.401766 2.205273 1.459513
v -0.401763 2.205273 1.459514
v -1.077734 2.205273 0.818768
v -1.411533 2.032499 -0.143137
v -1.297181 2.032499 -1.015686
v -0.770982 2.032499 -1.492248
vt 0.343759 0.611343
vt 0.465065 0.611343
vt 0.445808 0.680064
vt 0.394152 0.726966
vt 0.326496 0.737159
vt 0.264321 0.707406
vt 0.227368 0.647154
vt 0.227368 0.575533
vt 0.264321 0.515281
vt 0.326496 0.485528
vt 0.394151 0.495721
vt 0.445808 0.542623
vt 0.993926 0.737159
vt 1.000000 0.776406
vt 0.940510 0.785617
vt 0.936473 0.746051
vt 0.695927 0.286900
vt 0.674988 0.313699
vt 0.637082 0.285452
vt 0.652452 0.255526
vt 0.883239 0.793619
vt 0.880176 0.753861
vt 0.602567 0.262868
vt 0.610359 0.227935
vt 0.827689 0.798680
vt 0.824671 0.758890
vt 0.546269 0.234299
vt 0.569202 0.201064
vt 0.175189 0.758928
vt 0.172172 0.798687
vt 0.116666 0.793627
vt 0.119728 0.753901
vt 0.131518 0.195045
vt 0.154336 0.229636
vt 0.096139 0.257945
vt 0.088694 0.221940
vt 0.059441 0.785627
vt 0.063477 0.746093
vt 0.060415 0.280626
vt 0.045040 0.249692
vt 0.021164 0.309136
vt 0.000000 0.281355
vt 0.000000 0.776419
vt 0.006072 0.737204
vt 0.651950 0.772001
vt 0.654970 0.811785
vt 0.591662 0.814114
vt 0.589005 0.774389
vt 0.470027 0.071419
vt 0.454939 0.128196
vt 0.410605 0.076919
vt 0.433177 0.027622
vt 0.530113 0.814395
vt 0.528997 0.774700
vt 0.374387 0.054094
vt 0.383822 0.001981
vt 0.469575 0.814396
vt 0.470687 0.774706
vt 0.336188 0.051768
vt 0.329487 0.000000
vt 0.408044 0.814114
vt 0.410698 0.774405
vt 0.298485 0.073433
vt 0.278239 0.022473
vt 0.344769 0.811785
vt 0.347786 0.772025
vt 0.251080 0.123939
vt 0.238138 0.065141
vt 0.093726 0.348307
vt 0.110601 0.394332
vt 0.069418 0.404206
vt 0.058829 0.363629
vt 0.120810 0.478265
vt 0.069799 0.485528
vt 0.137209 0.328622
vt 0.156890 0.378063
vt 0.170824 0.461375
vt 0.190812 0.306584
vt 0.210288 0.359205
vt 0.221971 0.441760
vt 0.252946 0.281222
vt 0.269474 0.343722
vt 0.277304 0.426069
vt 0.318647 0.267667
vt 0.325134 0.338536
vt 0.326766 0.419313
vt 0.382352 0.267917
vt 0.376798 0.337458
vt 0.373070 0.419874
vt 0.448229 0.282843
vt 0.431314 0.344052
vt 0.422719 0.426393
vt 0.509171 0.308973
vt 0.489400 0.360351
vt 0.477307 0.441848
vt 0.561476 0.331337
vt 0.541650 0.379542
vt 0.527408 0.461284
vt 0.603788 0.351089
vt 0.586857 0.395933
vt 0.576297 0.478105
vt 0.637715 0.366388
vt 0.627062 0.405918
vt 0.626192 0.485528
vt 0.937834 0.258875
vt 0.975307 0.307653
vt 0.947650 0.317226
vt 0.918053 0.280163
vt 0.876222 0.232344
vt 0.869248 0.258348
vt 0.804140 0.235405
vt 0.812691 0.259875
vt 0.734868 0.271079
vt 0.758927 0.288469
vt 0.695927 0.326770
vt 0.728653 0.333366
vt 0.695927 0.388255
vt 0.729460 0.382508
vt 0.733777 0.444108
vt 0.757889 0.427361
vt 0.801436 0.480743
vt 0.810429 0.456743
vt 0.872685 0.485528
vt 0.866427 0.459603
vt 0.934409 0.460843
vt 0.915361 0.439231
vt 0.972837 0.413488
vt 0.945679 0.403270
vt 0.888252 0.405025
vt 0.910048 0.378880
vt 0.857226 0.417377
vt 0.823040 0.414516
vt 0.789916 0.398733
vt 0.770783 0.372826
vt 0.771870 0.343352
vt 0.791080 0.317857
vt 0.824503 0.302750
vt 0.858916 0.300688
vt 0.889822 0.313925
vt 0.911070 0.340849
vt 0.842432 0.358986
vt 0.212114 0.185227
vt 0.272793 0.149284
vt 0.236119 0.207249
vt 0.328037 0.122019
vt 0.316400 0.172881
vt 0.379465 0.123465
vt 0.388921 0.173403
vt 0.432664 0.152143
vt 0.466623 0.210412
vt 0.490870 0.189515
vt 0.171670 0.515281
vt 0.257085 0.485528
vt 0.042433 0.515281
vt 0.113828 0.485528
vt 0.129237 0.575533
vt 0.000000 0.575533
vt 0.129237 0.647154
vt 0.000000 0.647154
vt 0.171670 0.707406
vt 0.042433 0.707406
vt 0.257085 0.737159
vt 0.113828 0.737159
vt 0.173090 0.162467
vt 0.231522 0.763203
vt 0.228505 0.802962
vt 0.771315 0.802956
vt 0.768295 0.763169
vt 0.529612 0.168529
vt 0.649375 0.341756
vt 0.613360 0.318895
vt 0.577302 0.296012
vt 0.527290 0.270567
vt 0.455831 0.247313
vt 0.385262 0.220779
vt 0.318185 0.219980
vt 0.246037 0.245019
vt 0.173023 0.267108
vt 0.121516 0.292283
vt 0.084299 0.315225
vt 0.047116 0.338241
vn 0.000000 -1.000000 0.000000
vn 0.000000 -0.653829 -0.756615
vn 0.384472 -0.661184 -0.644185
vn 0.661672 -0.675466 -0.325388
vn 0.687124 -0.724601 -0.052675
vn -0.687124 -0.724601 -0.052675
vn -0.661672 -0.675466 -0.325388
vn -0.384472 -0.661184 -0.644185
vn 0.000000 0.050935 -0.998688
vn 0.514847 0.029450 -0.856746
vn 0.000000 0.283242 -0.959044
vn 0.441420 0.276833 -0.853511
vn 0.910764 0.059114 -0.408612
vn 0.823481 0.291482 -0.486709
vn 0.991577 0.119724 -0.048921
vn 0.929167 0.369488 0.008942
vn -0.991577 0.119724 -0.048921
vn -0.910764 0.059114 -0.408612
vn -0.929167 0.369488 0.008942
vn -0.823481 0.291482 -0.486679
vn -0.514847 0.029450 -0.856746
vn -0.441420 0.276833 -0.853511
vn 0.700797 -0.698538 0.144536
vn 0.943388 0.271737 0.190100
vn 0.752586 0.296152 0.588122
vn 0.571001 -0.670461 0.473678
vn 0.773766 0.628529 0.078738
vn 0.482101 0.833613 0.269539
vn 0.290658 0.311777 0.904569
vn 0.222388 -0.650655 0.726066
vn 0.182867 0.854427 0.486282
vn -0.290658 0.311777 0.904569
vn -0.222388 -0.650655 0.726066
vn -0.182867 0.854427 0.486282
vn -0.752586 0.296152 0.588122
vn -0.571001 -0.670461 0.473678
vn -0.482101 0.833613 0.269539
vn -0.943388 0.271767 0.190100
vn -0.700797 -0.698538 0.144536
vn -0.773766 0.628529 0.078738
vn -0.534532 -0.048952 -0.843715
vn -0.567827 -0.280129 -0.773980
vn 0.000000 -0.302652 -0.953093
vn 0.000000 -0.118320 -0.992950
vn -0.493301 0.486312 -0.721183
vn 0.000000 0.468490 -0.883450
vn -0.910398 0.086093 -0.404645
vn -0.906339 -0.234901 -0.351207
vn -0.779229 0.524827 -0.342509
vn -0.985931 0.139164 0.092257
vn -0.973083 -0.194647 0.123203
vn -0.821741 0.565416 0.070498
vn -0.826838 0.201209 0.525163
vn -0.799066 -0.176519 0.574694
vn -0.672048 0.584155 0.455031
vn -0.353130 0.290109 0.889431
vn -0.327708 -0.175726 0.928281
vn -0.279305 0.583209 0.762780
vn 0.353130 0.290109 0.889431
vn 0.327708 -0.175726 0.928281
vn 0.279305 0.583209 0.762780
vn 0.826838 0.201209 0.525163
vn 0.799066 -0.176519 0.574694
vn 0.672048 0.584155 0.455031
vn 0.985931 0.139164 0.092257
vn 0.973083 -0.194647 0.123203
vn 0.821741 0.565416 0.070498
vn 0.910398 0.086093 -0.404645
vn 0.906339 -0.234901 -0.351207
vn 0.779229 0.524827 -0.342509
vn 0.534501 -0.048952 -0.843715
vn 0.567827 -0.280129 -0.773980
vn 0.493301 0.486312 -0.721183
vn 0.000000 0.891690 0.452589
vn -0.267769 0.885159 0.380474
vn -0.448256 0.874294 0.186041
vn -0.493515 0.867946 -0.055513
vn -0.382855 0.881527 -0.276193
vn -0.141331 0.902921 -0.405866
vn 0.141331 0.902921 -0.405866
vn 0.382855 0.881527 -0.276193
vn 0.493515 0.867946 -0.055513
vn 0.448256 0.874294 0.186041
vn 0.267769 0.885159 0.380474
vn 0.359844 0.791375 0.494156
vn 0.000000 0.792840 0.609363
vn 0.570269 0.788873 0.229011
vn 0.607440 0.791833 -0.063234
vn 0.501572 0.796442 -0.337718
vn 0.210028 0.801996 -0.559130
vn -0.210028 0.801996 -0.559130
vn -0.501602 0.796442 -0.337718
vn -0.607440 0.791833 -0.063234
vn -0.570269 0.788873 0.229011
vn -0.359844 0.791375 0.494156
vn 0.000000 1.000000 0.000000
vn -0.868831 0.481948 0.113163
vn -0.485092 0.864071 0.134281
vn -0.779412 0.551103 0.297922
vn -0.062014 0.991333 0.115574
vn -0.175359 0.901730 0.395123
vn 0.062014 0.991333 0.115574
vn 0.175359 0.901730 0.395123
vn 0.485092 0.864071 0.134281
vn 0.779412 0.551103 0.297922
vn 0.868831 0.481948 0.113163
vn -0.671499 -0.740989 0.000000
vn 0.671499 -0.740989 0.000000
vn -0.979492 0.198675 0.032899
vn 0.979492 0.198675 0.032899
vn 0.000000 0.203864 -0.978973
vn 0.485183 0.296152 -0.822718
vn 0.837672 0.380291 -0.391980
vn 0.911527 0.407788 0.052553
vn 0.735405 0.534776 0.416150
vn 0.288552 0.677633 0.676382
vn -0.288552 0.677633 0.676382
vn -0.735374 0.534776 0.416150
vn -0.911527 0.407788 0.052553
vn -0.837672 0.380291 -0.391980
vn -0.485183 0.296152 -0.822718
usemtl _untitled
s 1
f 23/1/1 1/2/2 2/3/3
f 23/1/1 2/3/3 3/4/4
f 23/1/1 3/4/4 4/5/5
f 23/1/1 4/5/5 5/6/1
f 23/1/1 5/6/1 6/7/1
f 23/1/1 6/7/1 7/8/1
f 23/1/1 7/8/1 8/9/1
f 23/1/1 8/9/1 9/10/6
f 23/1/1 9/10/6 10/11/7
f 23/1/1 10/11/7 11/12/8
f 11/12/8 1/2/2 23/1/1
f 1/13/2 59/14/9 58/15/10
f 1/13/2 58/15/10 2/16/3
f 59/17/9 36/18/11 35/19/12
f 59/17/9 35/19/12 58/20/10
f 2/16/3 58/15/10 60/21/13
f 2/16/3 60/21/13 3/22/4
f 58/20/10 35/19/12 37/23/14
f 58/20/10 37/23/14 60/24/13
f 3/22/4 60/21/13 61/25/15
f 3/22/4 61/25/15 4/26/5
f 60/24/13 37/23/14 38/27/16
f 60/24/13 38/27/16 61/28/15
f 9/29/6 62/30/17 63/31/18
f 9/29/6 63/31/18 10/32/7
f 62/33/17 43/34/19 44/35/20
f 62/33/17 44/35/20 63/36/18
f 10/32/7 63/31/18 64/37/21
f 10/32/7 64/37/21 11/38/8
f 63/36/18 44/35/20 45/39/22
f 63/36/18 45/39/22 64/40/21
f 36/41/11 59/42/9 64/40/21
f 36/41/11 64/40/21 45/39/22
f 59/43/9 1/44/2 11/38/8
f 59/43/9 11/38/8 64/37/21
f 57/45/23 66/46/24 67/47/25
f 57/45/23 67/47/25 56/48/26
f 66/49/24 51/50/27 50/51/28
f 66/49/24 50/51/28 67/52/25
f 56/48/26 67/47/25 68/53/29
f 56/48/26 68/53/29 55/54/30
f 67/52/25 50/51/28 49/55/31
f 67/52/25 49/55/31 68/56/29
f 55/54/30 68/53/29 69/57/32
f 55/54/30 69/57/32 54/58/33
f 68/56/29 49/55/31 48/59/34
f 68/56/29 48/59/34 69/60/32
f 54/58/33 69/57/32 70/61/35
f 54/58/33 70/61/35 53/62/36
f 69/60/32 48/59/34 47/63/37
f 69/60/32 47/63/37 70/64/35
f 53/62/36 70/61/35 65/65/38
f 53/62/36 65/65/38 52/66/39
f 70/64/35 47/63/37 46/67/40
f 70/64/35 46/67/40 65/68/38
f 22/69/41 71/70/42 72/71/43
f 22/69/41 72/71/43 12/72/44
f 71/70/42 24/73/45 34/74/46
f 71/70/42 34/74/46 72/71/43
f 21/75/47 73/76/48 71/70/42
f 21/75/47 71/70/42 22/69/41
f 73/76/48 25/77/49 24/73/45
f 73/76/48 24/73/45 71/70/42
f 20/78/50 74/79/51 73/76/48
f 20/78/50 73/76/48 21/75/47
f 74/79/51 26/80/52 25/77/49
f 74/79/51 25/77/49 73/76/48
f 19/81/53 75/82/54 74/79/51
f 19/81/53 74/79/51 20/78/50
f 75/82/54 27/83/55 26/80/52
f 75/82/54 26/80/52 74/79/51
f 18/84/56 76/85/57 75/82/54
f 18/84/56 75/82/54 19/81/53
f 76/85/57 28/86/58 27/83/55
f 76/85/57 27/83/55 75/82/54
f 17/87/59 77/88/60 76/85/57
f 17/87/59 76/85/57 18/84/56
f 77/88/60 29/89/61 28/86/58
f 77/88/60 28/86/58 76/85/57
f 16/90/62 78/91/63 77/88/60
f 16/90/62 77/88/60 17/87/59
f 78/91/63 30/92/64 29/89/61
f 78/91/63 29/89/61 77/88/60
f 15/93/65 79/94/66 78/91/63
f 15/93/65 78/91/63 16/90/62
f 79/94/66 31/95/67 30/92/64
f 79/94/66 30/92/64 78/91/63
f 14/96/68 80/97/69 79/94/66
f 14/96/68 79/94/66 15/93/65
f 80/97/69 32/98/70 31/95/67
f 80/97/69 31/95/67 79/94/66
f 13/99/71 81/100/72 80/97/69
f 13/99/71 80/97/69 14/96/68
f 81/100/72 33/101/73 32/98/70
f 81/100/72 32/98/70 80/97/69
f 12/102/44 72/103/43 81/100/72
f 12/102/44 81/100/72 13/99/71
f 72/103/43 34/104/46 33/101/73
f 72/103/43 33/101/73 81/100/72
f 33/105/73 34/106/46 82/107/74
f 33/105/73 82/107/74 83/108/75
f 32/109/70 33/105/73 83/108/75
f 32/109/70 83/108/75 84/110/76
f 31/111/67 32/109/70 84/110/76
f 31/111/67 84/110/76 85/112/77
f 30/113/64 31/111/67 85/112/77
f 30/113/64 85/112/77 86/114/78
f 29/115/61 30/113/64 86/114/78
f 29/115/61 86/114/78 87/116/79
f 28/117/58 29/115/61 87/116/79
f 28/117/58 87/116/79 88/118/80
f 27/119/55 28/117/58 88/118/80
f 27/119/55 88/118/80 89/120/81
f 26/121/52 27/119/55 89/120/81
f 26/121/52 89/120/81 90/122/82
f 25/123/49 26/121/52 90/122/82
f 25/123/49 90/122/82 91/124/83
f 24/125/45 25/123/49 91/124/83
f 24/125/45 91/124/83 92/126/84
f 34/127/46 24/125/45 92/126/84
f 34/127/46 92/126/84 82/128/74
f 82/128/74 92/126/84 94/129/85
f 82/128/74 94/129/85 104/130/86
f 92/126/84 91/124/83 95/131/87
f 92/126/84 95/131/87 94/129/85
f 91/124/83 90/122/82 96/132/88
f 91/124/83 96/132/88 95/131/87
f 90/122/82 89/120/81 97/133/89
f 90/122/82 97/133/89 96/132/88
f 89/120/81 88/118/80 98/134/90
f 89/120/81 98/134/90 97/133/89
f 88/118/80 87/116/79 99/135/91
f 88/118/80 99/135/91 98/134/90
f 87/116/79 86/114/78 100/136/92
f 87/116/79 100/136/92 99/135/91
f 86/114/78 85/112/77 101/137/93
f 86/114/78 101/137/93 100/136/92
f 85/112/77 84/110/76 102/138/94
f 85/112/77 102/138/94 101/137/93
f 84/110/76 83/108/75 103/139/95
f 84/110/76 103/139/95 102/138/94
f 83/108/75 82/107/74 104/140/86
f 83/108/75 104/140/86 103/139/95
f 93/141/96 103/139/95 104/140/86
f 93/141/96 102/138/94 103/139/95
f 93/141/96 101/137/93 102/138/94
f 93/141/96 100/136/92 101/137/93
f 93/141/96 99/135/91 100/136/92
f 93/141/96 98/134/90 99/135/91
f 93/141/96 97/133/89 98/134/90
f 93/141/96 96/132/88 97/133/89
f 93/141/96 95/131/87 96/132/88
f 93/141/96 94/129/85 95/131/87
f 93/141/96 104/130/86 94/129/85
f 43/34/19 105/142/97 106/143/98
f 43/34/19 106/143/98 42/144/99
f 105/142/97 46/67/40 47/63/37
f 105/142/97 47/63/37 106/143/98
f 42/144/99 106/143/98 107/145/100
f 42/144/99 107/145/100 41/146/101
f 106/143/98 47/63/37 48/59/34
f 106/143/98 48/59/34 107/145/100
f 41/146/101 107/145/100 108/147/102
f 41/146/101 108/147/102 40/148/103
f 107/145/100 48/59/34 49/55/31
f 107/145/100 49/55/31 108/147/102
f 40/148/103 108/147/102 109/149/104
f 40/148/103 109/149/104 39/150/105
f 108/147/102 49/55/31 50/51/28
f 108/147/102 50/51/28 109/149/104
f 39/150/105 109/149/104 110/151/106
f 39/150/105 110/151/106 38/27/16
f 109/149/104 50/51/28 51/50/27
f 109/149/104 51/50/27 110/151/106
f 8/9/1 113/152/1 111/153/107
f 8/9/1 111/153/107 9/10/6
f 113/152/1 53/154/36 52/155/39
f 113/152/1 52/155/39 111/153/107
f 7/8/1 114/156/1 113/152/1
f 7/8/1 113/152/1 8/9/1
f 114/156/1 54/157/33 53/154/36
f 114/156/1 53/154/36 113/152/1
f 6/7/1 115/158/1 114/156/1
f 6/7/1 114/156/1 7/8/1
f 115/158/1 55/159/30 54/157/33
f 115/158/1 54/157/33 114/156/1
f 5/6/1 116/160/1 115/158/1
f 5/6/1 115/158/1 6/7/1
f 116/160/1 56/161/26 55/159/30
f 116/160/1 55/159/30 115/158/1
f 4/5/5 112/162/108 116/160/1
f 4/5/5 116/160/1 5/6/1
f 112/162/108 57/163/23 56/161/26
f 112/162/108 56/161/26 116/160/1
f 62/33/17 117/164/109 105/142/97
f 62/33/17 105/142/97 43/34/19
f 117/164/109 65/68/38 46/67/40
f 117/164/109 46/67/40 105/142/97
f 9/29/6 111/165/107 117/166/109
f 9/29/6 117/166/109 62/30/17
f 111/165/107 52/66/39 65/65/38
f 111/165/107 65/65/38 117/166/109
f 61/25/15 118/167/110 112/168/108
f 61/25/15 112/168/108 4/26/5
f 118/167/110 66/46/24 57/45/23
f 118/167/110 57/45/23 112/168/108
f 38/27/16 110/151/106 118/169/110
f 38/27/16 118/169/110 61/28/15
f 110/151/106 51/50/27 66/49/24
f 110/151/106 66/49/24 118/169/110
f 36/18/11 120/170/111 119/171/112
f 36/18/11 119/171/112 35/19/12
f 120/170/111 12/102/44 13/99/71
f 120/170/111 13/99/71 119/171/112
f 35/19/12 119/171/112 121/172/113
f 35/19/12 121/172/113 37/23/14
f 119/171/112 13/99/71 14/96/68
f 119/171/112 14/96/68 121/172/113
f 37/23/14 121/172/113 122/173/114
f 37/23/14 122/173/114 38/27/16
f 121/172/113 14/96/68 15/93/65
f 121/172/113 15/93/65 122/173/114
f 38/27/16 122/173/114 123/174/115
f 38/27/16 123/174/115 39/150/105
f 122/173/114 15/93/65 16/90/62
f 122/173/114 16/90/62 123/174/115
f 39/150/105 123/174/115 124/175/116
f 39/150/105 124/175/116 40/148/103
f 123/174/115 16/90/62 17/87/59
f 123/174/115 17/87/59 124/175/116
f 40/148/103 124/175/116 125/176/117
f 40/148/103 125/176/117 41/146/101
f 124/175/116 17/87/59 18/84/56
f 124/175/116 18/84/56 125/176/117
f 41/146/101 125/176/117 126/177/118
f 41/146/101 126/177/118 42/144/99
f 125/176/117 18/84/56 19/81/53
f 125/176/117 19/81/53 126/177/118
f 42/144/99 126/177/118 127/178/119
f 42/144/99 127/178/119 43/34/19
f 126/177/118 19/81/53 20/78/50
f 126/177/118 20/78/50 127/178/119
f 43/34/19 127/178/119 128/179/120
f 43/34/19 128/179/120 44/35/20
f 127/178/119 20/78/50 21/75/47
f 127/178/119 21/75/47 128/179/120
f 44/35/20 128/179/120 129/180/121
f 44/35/20 129/180/121 45/39/22
f 128/179/120 21/75/47 22/69/41
f 128/179/120 22/69/41 129/180/121
f 12/72/44 120/181/111 129/180/121
f 12/72/44 129/180/121 22/69/41
f 120/181/111 36/41/11 45/39/22
f 120/181/111 45/39/22 129/180/121
